<svg  viewBox="0 0 104 24" fill="none" xmlns="http://www.w3.org/2000/svg">
<path d="M1.99878 10.4976C1.17035 10.4976 0.498779 11.1691 0.498779 11.9976C0.498779 12.826 1.17035 13.4976 1.99878 13.4976V10.4976ZM103.059 13.0582C103.645 12.4724 103.645 11.5227 103.059 10.9369L93.5135 1.39096C92.9277 0.80517 91.978 0.80517 91.3922 1.39096C90.8064 1.97674 90.8064 2.92649 91.3922 3.51228L99.8775 11.9976L91.3922 20.4828C90.8064 21.0686 90.8064 22.0184 91.3922 22.6042C91.978 23.1899 92.9277 23.1899 93.5135 22.6042L103.059 13.0582ZM1.99878 13.4976H101.999V10.4976H1.99878V13.4976Z" />
</svg>
