<svg  viewBox="0 0 400 72" fill="none" xmlns="http://www.w3.org/2000/svg">
<path d="M129.158 35.43V30.063H117.834V70.95H129.69V51.6465C129.69 47.745 130.691 44.871 132.691 43.02C134.693 41.1705 137.314 40.2465 140.558 40.2465C141.014 40.2465 141.444 40.26 141.849 40.284C142.254 40.3095 142.71 40.3485 143.217 40.398V29.454C139.367 29.454 136.098 30.2025 133.413 31.6965C131.691 32.655 130.275 33.9 129.158 35.43Z" fill="#E2112E"/>
<path d="M179.645 33.8625C176.199 30.924 171.36 29.454 165.129 29.454C161.886 29.454 158.694 29.8845 155.553 30.7455C152.411 31.608 149.726 32.823 147.497 34.3935L151.752 42.678C153.221 41.5125 155.007 40.5885 157.11 39.9045C159.212 39.2205 161.354 38.8785 163.531 38.8785C166.723 38.8785 169.092 39.588 170.637 41.007C172.182 42.426 172.955 44.4015 172.955 46.935H163.53C159.375 46.935 156.006 47.4555 153.422 48.4935C150.837 49.533 148.95 50.964 147.759 52.788C146.568 54.612 145.973 56.7405 145.973 59.172C145.973 61.6035 146.58 63.606 147.797 65.4795C149.013 67.3545 150.761 68.8365 153.041 69.9255C155.321 71.0145 158.057 71.559 161.249 71.559C164.846 71.559 167.784 70.875 170.064 69.507C171.605 68.583 172.82 67.368 173.712 65.8665V70.9515H184.808V47.6205C184.808 41.388 183.084 36.804 179.64 33.864L179.645 33.8625ZM172.956 58.0305C172.247 59.8545 171.107 61.236 169.536 62.172C167.965 63.1095 166.193 63.5775 164.216 63.5775C162.138 63.5775 160.503 63.135 159.314 62.247C158.122 61.3605 157.527 60.1575 157.527 58.6365C157.527 57.2685 158.046 56.1285 159.085 55.2165C160.124 54.3045 162.036 53.8485 164.823 53.8485H172.955V58.029L172.956 58.0305Z" fill="#E2112E"/>
<path d="M227.12 31.392C224.561 30.1005 221.66 29.454 218.418 29.454C214.922 29.454 211.806 30.189 209.07 31.6575C207.456 32.5245 206.064 33.6135 204.89 34.9215V30.0615H193.566V70.9485H205.422V50.733C205.422 48.1995 205.84 46.1235 206.676 44.5005C207.512 42.879 208.677 41.676 210.173 40.89C211.667 40.1055 213.351 39.7125 215.226 39.7125C217.86 39.7125 219.9 40.4985 221.345 42.069C222.789 43.6395 223.51 46.0725 223.51 49.365V70.9485H235.367V47.541C235.367 43.3875 234.632 39.9795 233.163 37.3185C231.693 34.659 229.679 32.682 227.121 31.3905L227.12 31.392Z" fill="#E2112E"/>
<path d="M273.137 50.2785C273.137 52.761 272.73 54.8265 271.92 56.472C271.109 58.119 269.994 59.3355 268.577 60.12C267.158 60.906 265.536 61.2975 263.712 61.2975C261.077 61.2975 259.038 60.4995 257.594 58.9035C256.149 57.3075 255.428 54.813 255.428 51.417V30.0615H243.572V53.1645C243.572 57.3705 244.305 60.828 245.775 63.5385C247.244 66.249 249.309 68.2635 251.969 69.5805C254.628 70.899 257.655 71.556 261.051 71.556C264.192 71.556 267.093 70.8345 269.753 69.39C271.302 68.5485 272.631 67.4685 273.742 66.1545V70.947H284.991V30.063H273.135V50.2785H273.137Z" fill="#E2112E"/>
<path d="M305.823 14.559H293.967V70.95H305.823V14.559Z" fill="#E2112E"/>
<path d="M341.627 61.0695C339.98 61.728 338.067 62.058 335.889 62.058C333.458 62.058 331.341 61.6155 329.543 60.7275C327.744 59.841 326.351 58.5495 325.362 56.8515C324.825 55.929 324.435 54.9285 324.191 53.85H355.116C355.165 53.3445 355.216 52.7985 355.268 52.2165C355.317 51.6345 355.344 51.114 355.344 50.658C355.344 46.2495 354.406 42.4635 352.531 39.2955C350.656 36.1305 348.111 33.6975 344.894 31.9995C341.676 30.303 338.066 29.454 334.064 29.454C330.062 29.454 326.184 30.354 322.892 32.1525C319.598 33.951 317.001 36.435 315.102 39.6C313.202 42.7665 312.252 46.4025 312.252 50.5065C312.252 54.6105 313.214 58.17 315.139 61.3365C317.064 64.503 319.788 66.999 323.31 68.823C326.831 70.647 330.923 71.559 335.585 71.559C339.282 71.559 342.551 70.989 345.389 69.849C348.225 68.709 350.582 67.0755 352.457 64.947L346.149 58.107C344.781 59.4255 343.274 60.4125 341.627 61.071V61.0695ZM325.173 43.476C326.034 41.88 327.237 40.6395 328.784 39.7515C330.328 38.865 332.115 38.421 334.142 38.421C336.168 38.421 337.941 38.865 339.462 39.7515C340.982 40.638 342.172 41.868 343.034 43.437C343.605 44.4795 343.986 45.645 344.178 46.9335H324.045C324.242 45.66 324.617 44.5065 325.175 43.476H325.173Z" fill="#E2112E"/>
<path d="M383.727 50.058L398.937 30.063H386.321L377.439 42.003L368.764 30.063H355.466L370.662 50.325L354.933 70.95H367.853L377.139 58.4265L386.092 70.95H399.544L383.727 50.058Z" fill="#E2112E"/>
<path d="M66.921 41.937H90.309C87.663 52.389 78.1965 60.1245 66.921 60.1245C53.598 60.1245 42.7965 49.323 42.7965 36C42.7965 22.677 53.598 11.8755 66.921 11.8755C75.4995 11.8755 83.0325 16.3545 87.309 23.1H100.538C95.3505 9.591 82.257 0 66.921 0H35.757C16.1175 0 0 16.1175 0 36C0 55.8825 16.1175 72 36 72H66.921C79.485 72 90.543 65.562 96.984 55.8075V70.95H108.86V30.063H66.9225V41.9385L66.921 41.937ZM5.154 36C5.154 17.634 19.3215 2.5785 37.119 1.1595C21.786 5.19 10.3605 19.26 10.3605 36C10.3605 52.74 21.7725 66.792 37.236 70.8315C19.275 69.372 5.154 54.336 5.154 36ZM15.4635 36C15.4635 17.682 29.5575 2.6565 47.292 1.173C31.9815 5.2185 20.5785 19.2765 20.5785 36C20.5785 52.7235 31.968 66.765 47.409 70.8195C29.514 69.2955 15.4635 54.2895 15.4635 36ZM25.731 36C25.731 17.5725 39.993 2.4765 57.876 1.146C42.372 5.1585 30.921 19.242 30.921 36C30.921 52.758 42.3285 66.7875 57.789 70.83C39.84 69.3585 25.7325 54.3285 25.7325 36H25.731Z" fill="#E2112E"/>
</svg>
