<svg width="1920" height="52" viewBox="0 0 1920 52" fill="none" xmlns="http://www.w3.org/2000/svg">
<path d="M367.992 32.7346H365.624V49.9003H367.992V32.7346Z" fill="#E2112E"/>
<path d="M372.728 19.3613H370.36V50.0001H372.728V19.3613Z" fill="#E2112E"/>
<path d="M377.464 37.6248H375.096V50H377.464V37.6248Z" fill="#E2112E"/>
<path d="M382.2 15.7686H379.832V50.0001H382.2V15.7686Z" fill="#E2112E"/>
<path d="M386.7 15.7686H384.332V50.0001H386.7V15.7686Z" fill="#E2112E"/>
<path d="M391.436 18.4631H389.068V50.0001H391.436V18.4631Z" fill="#E2112E"/>
<path d="M396.172 34.6309H393.804V50.0001H396.172V34.6309Z" fill="#E2112E"/>
<path d="M400.908 6.18774H398.54V50.0001H400.908V6.18774Z" fill="#E2112E"/>
<path d="M405.644 11.7764H403.276V49.9001H405.644V11.7764Z" fill="#E2112E"/>
<path d="M410.38 19.2615H408.012V50H410.38V19.2615Z" fill="#E2112E"/>
<path d="M419.615 36.4272H417.247V50.0001H419.615V36.4272Z" fill="#E2112E"/>
<path d="M414.879 43.2136H412.511V50H414.879V43.2136Z" fill="#E2112E"/>
<path d="M424.352 30.938H421.984V49.9999H424.352V30.938Z" fill="#E2112E"/>
<path d="M429.088 19.3613H426.719V50.0001H429.088V19.3613Z" fill="#E2112E"/>
<path d="M433.824 4.49097H431.456V49.9999H433.824V4.49097Z" fill="#E2112E"/>
<path d="M438.323 14.5708H435.955V49.9999H438.323V14.5708Z" fill="#E2112E"/>
<path d="M443.059 8.88232H440.691V49.9003H443.059V8.88232Z" fill="#E2112E"/>
<path d="M447.795 18.4631H445.427V50.0001H447.795V18.4631Z" fill="#E2112E"/>
<path d="M452.531 27.6448H450.163V49.9003H452.531V27.6448Z" fill="#E2112E"/>
<path d="M2.36803 12.6747H0V50H2.36803V12.6747Z" fill="#E2112E"/>
<path d="M7.10412 27.6448H4.73608V49.9003H7.10412V27.6448Z" fill="#E2112E"/>
<path d="M11.8402 20.5588H9.47217V50H11.8402V20.5588Z" fill="#E2112E"/>
<path d="M16.3395 35.1296H13.9714V49.9001H16.3395V35.1296Z" fill="#E2112E"/>
<path d="M21.0754 12.6746H18.7074V49.9999H21.0754V12.6746Z" fill="#E2112E"/>
<path d="M25.8115 27.6448H23.4435V49.9003H25.8115V27.6448Z" fill="#E2112E"/>
<path d="M30.5476 35.1296H28.1796V49.9001H30.5476V35.1296Z" fill="#E2112E"/>
<path d="M35.2837 27.6448H32.9156V49.9003H35.2837V27.6448Z" fill="#E2112E"/>
<path d="M39.7831 20.5588H37.415V50H39.7831V20.5588Z" fill="#E2112E"/>
<path d="M44.519 27.6448H42.151V49.9003H44.519V27.6448Z" fill="#E2112E"/>
<path d="M49.2551 33.3333H46.8871V49.9999H49.2551V33.3333Z" fill="#E2112E"/>
<path d="M53.9911 38.8223H51.623V49.9999H53.9911V38.8223Z" fill="#E2112E"/>
<path d="M58.7272 44.4111H56.3591V50H58.7272V44.4111Z" fill="#E2112E"/>
<path d="M63.2266 46.3074H60.8585V50H63.2266V46.3074Z" fill="#E2112E"/>
<path d="M67.9626 47.7046H65.5946V49.9002H67.9626V47.7046Z" fill="#E2112E"/>
<path d="M72.6987 46.7065H70.3307V50H72.6987V46.7065Z" fill="#E2112E"/>
<path d="M77.4347 44.4111H75.0667V50H77.4347V44.4111Z" fill="#E2112E"/>
<path d="M82.1706 41.2175H79.8026V50H82.1706V41.2175Z" fill="#E2112E"/>
<path d="M86.67 35.4292H84.302V50.0001H86.67V35.4292Z" fill="#E2112E"/>
<path d="M180.444 15.7686H178.076V50.0001H180.444V15.7686Z" fill="#E2112E"/>
<path d="M185.18 40.4192H182.812V50H185.18V40.4192Z" fill="#E2112E"/>
<path d="M189.916 18.4631H187.548V50.0001H189.916V18.4631Z" fill="#E2112E"/>
<path d="M194.652 34.6309H192.284V50.0001H194.652V34.6309Z" fill="#E2112E"/>
<path d="M199.151 29.4412H196.783V50H199.151V29.4412Z" fill="#E2112E"/>
<path d="M203.888 32.0359H201.52V50H203.888V32.0359Z" fill="#E2112E"/>
<path d="M208.624 35.5288H206.256V49.9999H208.624V35.5288Z" fill="#E2112E"/>
<path d="M213.36 41.4172H210.992V50.0001H213.36V41.4172Z" fill="#E2112E"/>
<path d="M218.096 36.4272H215.728V50.0001H218.096V36.4272Z" fill="#E2112E"/>
<path d="M222.595 30.938H220.227V49.9999H222.595V30.938Z" fill="#E2112E"/>
<path d="M227.331 35.5288H224.963V49.9999H227.331V35.5288Z" fill="#E2112E"/>
<path d="M232.067 28.543H229.699V50.0001H232.067V28.543Z" fill="#E2112E"/>
<path d="M236.803 33.3333H234.435V49.9999H236.803V33.3333Z" fill="#E2112E"/>
<path d="M241.539 30.6387H239.171V49.9999H241.539V30.6387Z" fill="#E2112E"/>
<path d="M246.039 35.1296H243.671V49.9999H246.039V35.1296Z" fill="#E2112E"/>
<path d="M250.775 27.6448H248.407V49.9003H250.775V27.6448Z" fill="#E2112E"/>
<path d="M255.511 28.0439H253.143V49.9002H255.511V28.0439Z" fill="#E2112E"/>
<path d="M260.247 35.8284H257.879V50H260.247V35.8284Z" fill="#E2112E"/>
<path d="M264.983 40.6187H262.615V49.9999H264.983V40.6187Z" fill="#E2112E"/>
<path d="M269.719 12.6746H267.351V49.9999H269.719V12.6746Z" fill="#E2112E"/>
<path d="M274.218 20.5588H271.85V50H274.218V20.5588Z" fill="#E2112E"/>
<path d="M278.954 12.6746H276.586V49.9999H278.954V12.6746Z" fill="#E2112E"/>
<path d="M283.69 27.6448H281.322V49.9003H283.69V27.6448Z" fill="#E2112E"/>
<path d="M288.426 20.5588H286.058V50H288.426V20.5588Z" fill="#E2112E"/>
<path d="M293.162 35.1296H290.794V49.9001H293.162V35.1296Z" fill="#E2112E"/>
<path d="M297.662 12.6746H295.294V49.9999H297.662V12.6746Z" fill="#E2112E"/>
<path d="M302.398 27.6448H300.03V49.9003H302.398V27.6448Z" fill="#E2112E"/>
<path d="M307.134 35.1296H304.766V49.9001H307.134V35.1296Z" fill="#E2112E"/>
<path d="M311.87 27.6448H309.502V49.9003H311.87V27.6448Z" fill="#E2112E"/>
<path d="M316.606 20.5588H314.238V50H316.606V20.5588Z" fill="#E2112E"/>
<path d="M321.105 27.6448H318.737V49.9003H321.105V27.6448Z" fill="#E2112E"/>
<path d="M325.841 33.3333H323.473V49.9999H325.841V33.3333Z" fill="#E2112E"/>
<path d="M330.577 38.8223H328.209V49.9999H330.577V38.8223Z" fill="#E2112E"/>
<path d="M335.313 44.4111H332.945V50H335.313V44.4111Z" fill="#E2112E"/>
<path d="M340.05 46.3074H337.682V50H340.05V46.3074Z" fill="#E2112E"/>
<path d="M344.549 47.7046H342.181V49.9002H344.549V47.7046Z" fill="#E2112E"/>
<path d="M349.285 46.7065H346.917V50H349.285V46.7065Z" fill="#E2112E"/>
<path d="M354.021 44.4111H351.653V50H354.021V44.4111Z" fill="#E2112E"/>
<path d="M358.757 41.2175H356.389V50H358.757V41.2175Z" fill="#E2112E"/>
<path d="M363.493 35.4292H361.125V50.0001H363.493V35.4292Z" fill="#E2112E"/>
<path d="M471.238 32.7346H468.87V49.9003H471.238V32.7346Z" fill="#E2112E"/>
<path d="M475.975 19.3613H473.607V50.0001H475.975V19.3613Z" fill="#E2112E"/>
<path d="M480.711 37.6248H478.343V50H480.711V37.6248Z" fill="#E2112E"/>
<path d="M457.267 44.4111H454.899V50H457.267V44.4111Z" fill="#E2112E"/>
<path d="M462.003 41.2175H459.635V50H462.003V41.2175Z" fill="#E2112E"/>
<path d="M466.739 35.4292H464.371V50.0001H466.739V35.4292Z" fill="#E2112E"/>
<path d="M91.4061 27.6448H89.0381V49.9003H91.4061V27.6448Z" fill="#E2112E"/>
<path d="M96.1422 7.38525H93.7742V49.9002H96.1422V7.38525Z" fill="#E2112E"/>
<path d="M100.878 15.3691H98.5103V49.9999H100.878V15.3691Z" fill="#E2112E"/>
<path d="M105.614 22.8542H103.246V50H105.614V22.8542Z" fill="#E2112E"/>
<path d="M110.35 27.9441H107.982V50H110.35V27.9441Z" fill="#E2112E"/>
<path d="M114.849 37.9243H112.481V50.0002H114.849V37.9243Z" fill="#E2112E"/>
<path d="M119.586 42.7146H117.218V50H119.586V42.7146Z" fill="#E2112E"/>
<path d="M124.322 47.6047H121.954V49.9999H124.322V47.6047Z" fill="#E2112E"/>
<path d="M129.058 48.1038H126.69V50H129.058V48.1038Z" fill="#E2112E"/>
<path d="M133.794 40.8184H131.426V50H133.794V40.8184Z" fill="#E2112E"/>
<path d="M138.293 38.3232H135.925V49.9999H138.293V38.3232Z" fill="#E2112E"/>
<path d="M143.029 44.7107H140.661V50.0001H143.029V44.7107Z" fill="#E2112E"/>
<path d="M147.765 46.3074H145.397V49.9002H147.765V46.3074Z" fill="#E2112E"/>
<path d="M152.501 42.0161H150.133V50.0001H152.501V42.0161Z" fill="#E2112E"/>
<path d="M157.237 36.4272H154.869V50.0001H157.237V36.4272Z" fill="#E2112E"/>
<path d="M161.737 27.6448H159.369V49.9003H161.737V27.6448Z" fill="#E2112E"/>
<path d="M166.473 7.38525H164.105V49.9002H166.473V7.38525Z" fill="#E2112E"/>
<path d="M171.209 0H168.841V50H171.209V0Z" fill="#E2112E"/>
<path d="M175.945 3.1936H173.577V50H175.945V3.1936Z" fill="#E2112E"/>
<path d="M846.098 32.7346H843.73V49.9003H846.098V32.7346Z" fill="#E2112E"/>
<path d="M850.834 19.3613H848.466V50.0001H850.834V19.3613Z" fill="#E2112E"/>
<path d="M855.57 37.6248H853.202V50H855.57V37.6248Z" fill="#E2112E"/>
<path d="M860.069 15.7686H857.701V50.0001H860.069V15.7686Z" fill="#E2112E"/>
<path d="M864.806 15.7686H862.438V50.0001H864.806V15.7686Z" fill="#E2112E"/>
<path d="M869.542 18.4631H867.174V50.0001H869.542V18.4631Z" fill="#E2112E"/>
<path d="M874.278 34.6309H871.91V50.0001H874.278V34.6309Z" fill="#E2112E"/>
<path d="M879.014 6.18774H876.646V50.0001H879.014V6.18774Z" fill="#E2112E"/>
<path d="M883.513 11.7764H881.145V49.9001H883.513V11.7764Z" fill="#E2112E"/>
<path d="M888.249 19.2615H885.881V50H888.249V19.2615Z" fill="#E2112E"/>
<path d="M897.721 36.4272H895.353V50.0001H897.721V36.4272Z" fill="#E2112E"/>
<path d="M892.748 43.2136H890.38V50H892.748V43.2136Z" fill="#E2112E"/>
<path d="M902.457 30.938H900.089V49.9999H902.457V30.938Z" fill="#E2112E"/>
<path d="M906.956 19.3613H904.588V50.0001H906.956V19.3613Z" fill="#E2112E"/>
<path d="M911.692 4.49097H909.324V49.9999H911.692V4.49097Z" fill="#E2112E"/>
<path d="M916.429 14.5708H914.061V49.9999H916.429V14.5708Z" fill="#E2112E"/>
<path d="M921.165 8.88232H918.797V49.9003H921.165V8.88232Z" fill="#E2112E"/>
<path d="M925.901 18.4631H923.533V50.0001H925.901V18.4631Z" fill="#E2112E"/>
<path d="M930.4 27.6448H928.032V49.9003H930.4V27.6448Z" fill="#E2112E"/>
<path d="M480.474 12.6746H478.106V49.9999H480.474V12.6746Z" fill="#E2112E"/>
<path d="M484.973 27.6448H482.605V49.9003H484.973V27.6448Z" fill="#E2112E"/>
<path d="M489.709 20.5588H487.341V50H489.709V20.5588Z" fill="#E2112E"/>
<path d="M494.445 35.1296H492.077V49.9001H494.445V35.1296Z" fill="#E2112E"/>
<path d="M499.181 12.6746H496.813V49.9999H499.181V12.6746Z" fill="#E2112E"/>
<path d="M503.917 27.6448H501.549V49.9003H503.917V27.6448Z" fill="#E2112E"/>
<path d="M508.417 35.1296H506.049V49.9001H508.417V35.1296Z" fill="#E2112E"/>
<path d="M513.153 27.6448H510.785V49.9003H513.153V27.6448Z" fill="#E2112E"/>
<path d="M517.889 20.5588H515.521V50H517.889V20.5588Z" fill="#E2112E"/>
<path d="M522.625 27.6448H520.257V49.9003H522.625V27.6448Z" fill="#E2112E"/>
<path d="M527.361 33.3333H524.993V49.9999H527.361V33.3333Z" fill="#E2112E"/>
<path d="M531.86 38.8223H529.492V49.9999H531.86V38.8223Z" fill="#E2112E"/>
<path d="M536.596 44.4111H534.228V50H536.596V44.4111Z" fill="#E2112E"/>
<path d="M541.332 46.3074H538.964V50H541.332V46.3074Z" fill="#E2112E"/>
<path d="M546.068 47.7046H543.7V49.9002H546.068V47.7046Z" fill="#E2112E"/>
<path d="M550.804 46.7065H548.436V50H550.804V46.7065Z" fill="#E2112E"/>
<path d="M555.304 44.4111H552.936V50H555.304V44.4111Z" fill="#E2112E"/>
<path d="M560.04 41.2175H557.672V50H560.04V41.2175Z" fill="#E2112E"/>
<path d="M564.776 35.4292H562.408V50.0001H564.776V35.4292Z" fill="#E2112E"/>
<path d="M658.55 15.7686H656.182V50.0001H658.55V15.7686Z" fill="#E2112E"/>
<path d="M663.286 40.4192H660.918V50H663.286V40.4192Z" fill="#E2112E"/>
<path d="M667.785 18.4631H665.417V50.0001H667.785V18.4631Z" fill="#E2112E"/>
<path d="M672.521 34.6309H670.153V50.0001H672.521V34.6309Z" fill="#E2112E"/>
<path d="M677.257 29.4412H674.889V50H677.257V29.4412Z" fill="#E2112E"/>
<path d="M681.994 32.0359H679.625V50H681.994V32.0359Z" fill="#E2112E"/>
<path d="M686.73 35.5288H684.362V49.9999H686.73V35.5288Z" fill="#E2112E"/>
<path d="M691.229 41.4172H688.861V50.0001H691.229V41.4172Z" fill="#E2112E"/>
<path d="M695.965 36.4272H693.597V50.0001H695.965V36.4272Z" fill="#E2112E"/>
<path d="M700.701 30.938H698.333V49.9999H700.701V30.938Z" fill="#E2112E"/>
<path d="M705.437 35.5288H703.069V49.9999H705.437V35.5288Z" fill="#E2112E"/>
<path d="M710.173 28.543H707.805V50.0001H710.173V28.543Z" fill="#E2112E"/>
<path d="M714.672 33.3333H712.304V49.9999H714.672V33.3333Z" fill="#E2112E"/>
<path d="M719.408 30.6387H717.04V49.9999H719.408V30.6387Z" fill="#E2112E"/>
<path d="M724.144 35.1296H721.776V49.9999H724.144V35.1296Z" fill="#E2112E"/>
<path d="M728.88 27.6448H726.512V49.9003H728.88V27.6448Z" fill="#E2112E"/>
<path d="M733.617 28.0439H731.249V49.9002H733.617V28.0439Z" fill="#E2112E"/>
<path d="M738.116 35.8284H735.748V50H738.116V35.8284Z" fill="#E2112E"/>
<path d="M742.852 40.6187H740.484V49.9999H742.852V40.6187Z" fill="#E2112E"/>
<path d="M747.588 12.6746H745.22V49.9999H747.588V12.6746Z" fill="#E2112E"/>
<path d="M752.324 20.5588H749.956V50H752.324V20.5588Z" fill="#E2112E"/>
<path d="M757.06 12.6746H754.692V49.9999H757.06V12.6746Z" fill="#E2112E"/>
<path d="M761.796 27.6448H759.428V49.9003H761.796V27.6448Z" fill="#E2112E"/>
<path d="M766.295 20.5588H763.927V50H766.295V20.5588Z" fill="#E2112E"/>
<path d="M771.031 35.1296H768.663V49.9001H771.031V35.1296Z" fill="#E2112E"/>
<path d="M775.768 12.6746H773.4V49.9999H775.768V12.6746Z" fill="#E2112E"/>
<path d="M780.504 27.6448H778.136V49.9003H780.504V27.6448Z" fill="#E2112E"/>
<path d="M785.24 35.1296H782.872V49.9001H785.24V35.1296Z" fill="#E2112E"/>
<path d="M789.739 27.6448H787.371V49.9003H789.739V27.6448Z" fill="#E2112E"/>
<path d="M794.475 20.5588H792.107V50H794.475V20.5588Z" fill="#E2112E"/>
<path d="M799.211 27.6448H796.843V49.9003H799.211V27.6448Z" fill="#E2112E"/>
<path d="M803.947 33.3333H801.579V49.9999H803.947V33.3333Z" fill="#E2112E"/>
<path d="M808.683 38.8223H806.315V49.9999H808.683V38.8223Z" fill="#E2112E"/>
<path d="M813.182 44.4111H810.814V50H813.182V44.4111Z" fill="#E2112E"/>
<path d="M817.918 46.3074H815.55V50H817.918V46.3074Z" fill="#E2112E"/>
<path d="M822.655 47.7046H820.286V49.9002H822.655V47.7046Z" fill="#E2112E"/>
<path d="M827.391 46.7065H825.023V50H827.391V46.7065Z" fill="#E2112E"/>
<path d="M832.127 44.4111H829.759V50H832.127V44.4111Z" fill="#E2112E"/>
<path d="M836.626 41.2175H834.258V50H836.626V41.2175Z" fill="#E2112E"/>
<path d="M841.362 35.4292H838.994V50.0001H841.362V35.4292Z" fill="#E2112E"/>
<path d="M949.344 32.7346H946.976V49.9003H949.344V32.7346Z" fill="#E2112E"/>
<path d="M954.08 19.3613H951.712V50.0001H954.08V19.3613Z" fill="#E2112E"/>
<path d="M958.816 37.6248H956.448V50H958.816V37.6248Z" fill="#E2112E"/>
<path d="M935.373 44.4111H933.005V50H935.373V44.4111Z" fill="#E2112E"/>
<path d="M939.872 41.2175H937.504V50H939.872V41.2175Z" fill="#E2112E"/>
<path d="M944.608 35.4292H942.24V50.0001H944.608V35.4292Z" fill="#E2112E"/>
<path d="M569.512 27.6448H567.144V49.9003H569.512V27.6448Z" fill="#E2112E"/>
<path d="M574.248 7.38525H571.88V49.9002H574.248V7.38525Z" fill="#E2112E"/>
<path d="M578.747 15.3691H576.379V49.9999H578.747V15.3691Z" fill="#E2112E"/>
<path d="M583.483 22.8542H581.115V50H583.483V22.8542Z" fill="#E2112E"/>
<path d="M588.219 27.9441H585.851V50H588.219V27.9441Z" fill="#E2112E"/>
<path d="M592.955 37.9243H590.587V50.0002H592.955V37.9243Z" fill="#E2112E"/>
<path d="M597.692 42.7146H595.323V50H597.692V42.7146Z" fill="#E2112E"/>
<path d="M602.428 47.6047H600.06V49.9999H602.428V47.6047Z" fill="#E2112E"/>
<path d="M606.927 48.1038H604.559V50H606.927V48.1038Z" fill="#E2112E"/>
<path d="M611.663 40.8184H609.295V50H611.663V40.8184Z" fill="#E2112E"/>
<path d="M616.399 38.3232H614.031V49.9999H616.399V38.3232Z" fill="#E2112E"/>
<path d="M621.135 44.7107H618.767V50.0001H621.135V44.7107Z" fill="#E2112E"/>
<path d="M625.871 46.3074H623.503V49.9002H625.871V46.3074Z" fill="#E2112E"/>
<path d="M630.371 42.0161H628.002V50.0001H630.371V42.0161Z" fill="#E2112E"/>
<path d="M635.106 36.4272H632.738V50.0001H635.106V36.4272Z" fill="#E2112E"/>
<path d="M639.842 27.6448H637.474V49.9003H639.842V27.6448Z" fill="#E2112E"/>
<path d="M644.579 28.7424H642.21V49.9999H644.579V28.7424Z" fill="#E2112E"/>
<path d="M649.315 24.9502H646.947V49.9003H649.315V24.9502Z" fill="#E2112E"/>
<path d="M653.814 26.5469H651.446V49.9002H653.814V26.5469Z" fill="#E2112E"/>
<path d="M367.992 50H365.624V67.1657H367.992V50Z" fill="#E2112E"/>
<path d="M372.728 50H370.36V80.6387H372.728V50Z" fill="#E2112E"/>
<path d="M377.464 50H375.096V62.3753H377.464V50Z" fill="#E2112E"/>
<path d="M382.2 50H379.832V84.2315H382.2V50Z" fill="#E2112E"/>
<path d="M386.7 50H384.332V84.2315H386.7V50Z" fill="#E2112E"/>
<path d="M391.436 50H389.068V81.5369H391.436V50Z" fill="#E2112E"/>
<path d="M396.172 50H393.804V65.3693H396.172V50Z" fill="#E2112E"/>
<path d="M400.908 50H398.54V93.8124H400.908V50Z" fill="#E2112E"/>
<path d="M405.644 50H403.276V88.1238H405.644V50Z" fill="#E2112E"/>
<path d="M410.38 50H408.012V80.7385H410.38V50Z" fill="#E2112E"/>
<path d="M419.615 50H417.247V63.5729H419.615V50Z" fill="#E2112E"/>
<path d="M414.879 50H412.511V56.7864H414.879V50Z" fill="#E2112E"/>
<path d="M424.352 50H421.984V69.0619H424.352V50Z" fill="#E2112E"/>
<path d="M429.088 50H426.719V80.6387H429.088V50Z" fill="#E2112E"/>
<path d="M433.824 50H431.456V95.509H433.824V50Z" fill="#E2112E"/>
<path d="M438.323 50H435.955V85.4291H438.323V50Z" fill="#E2112E"/>
<path d="M443.059 50H440.691V91.018H443.059V50Z" fill="#E2112E"/>
<path d="M447.795 50H445.427V81.5369H447.795V50Z" fill="#E2112E"/>
<path d="M452.531 50H450.163V72.2555H452.531V50Z" fill="#E2112E"/>
<path d="M2.36803 50H0V87.3254H2.36803V50Z" fill="#E2112E"/>
<path d="M7.10412 50H4.73608V72.2555H7.10412V50Z" fill="#E2112E"/>
<path d="M11.8402 50H9.47217V79.4411H11.8402V50Z" fill="#E2112E"/>
<path d="M16.3395 50H13.9714V64.7705H16.3395V50Z" fill="#E2112E"/>
<path d="M21.0754 50H18.7074V87.3254H21.0754V50Z" fill="#E2112E"/>
<path d="M25.8115 50H23.4435V72.2555H25.8115V50Z" fill="#E2112E"/>
<path d="M30.5476 50H28.1796V64.7705H30.5476V50Z" fill="#E2112E"/>
<path d="M35.2837 50H32.9156V72.2555H35.2837V50Z" fill="#E2112E"/>
<path d="M39.7831 50H37.415V79.4411H39.7831V50Z" fill="#E2112E"/>
<path d="M44.519 50H42.151V72.2555H44.519V50Z" fill="#E2112E"/>
<path d="M49.2551 50H46.8871V66.6667H49.2551V50Z" fill="#E2112E"/>
<path d="M53.9911 50H51.623V61.1776H53.9911V50Z" fill="#E2112E"/>
<path d="M58.7272 50H56.3591V55.5888H58.7272V50Z" fill="#E2112E"/>
<path d="M63.2266 50H60.8585V53.6926H63.2266V50Z" fill="#E2112E"/>
<path d="M67.9626 50H65.5946V52.1956H67.9626V50Z" fill="#E2112E"/>
<path d="M72.6987 50H70.3307V53.2934H72.6987V50Z" fill="#E2112E"/>
<path d="M77.4347 50H75.0667V55.5888H77.4347V50Z" fill="#E2112E"/>
<path d="M82.1706 50H79.8026V58.7824H82.1706V50Z" fill="#E2112E"/>
<path d="M86.67 50H84.302V64.5709H86.67V50Z" fill="#E2112E"/>
<path d="M180.444 50H178.076V84.2315H180.444V50Z" fill="#E2112E"/>
<path d="M185.18 50H182.812V59.5808H185.18V50Z" fill="#E2112E"/>
<path d="M189.916 50H187.548V81.5369H189.916V50Z" fill="#E2112E"/>
<path d="M194.652 50H192.284V65.3693H194.652V50Z" fill="#E2112E"/>
<path d="M199.151 50H196.783V70.5589H199.151V50Z" fill="#E2112E"/>
<path d="M203.888 50H201.52V67.9641H203.888V50Z" fill="#E2112E"/>
<path d="M208.624 50H206.256V64.4711H208.624V50Z" fill="#E2112E"/>
<path d="M213.36 50H210.992V58.5828H213.36V50Z" fill="#E2112E"/>
<path d="M218.096 50H215.728V63.5729H218.096V50Z" fill="#E2112E"/>
<path d="M222.595 50H220.227V69.0619H222.595V50Z" fill="#E2112E"/>
<path d="M227.331 50H224.963V64.4711H227.331V50Z" fill="#E2112E"/>
<path d="M232.067 50H229.699V71.4571H232.067V50Z" fill="#E2112E"/>
<path d="M236.803 50H234.435V66.6667H236.803V50Z" fill="#E2112E"/>
<path d="M241.539 50H239.171V69.3613H241.539V50Z" fill="#E2112E"/>
<path d="M246.039 50H243.671V64.8703H246.039V50Z" fill="#E2112E"/>
<path d="M250.775 50H248.407V72.2555H250.775V50Z" fill="#E2112E"/>
<path d="M255.511 50H253.143V71.8563H255.511V50Z" fill="#E2112E"/>
<path d="M260.247 50H257.879V64.1717H260.247V50Z" fill="#E2112E"/>
<path d="M264.983 50H262.615V59.3812H264.983V50Z" fill="#E2112E"/>
<path d="M269.719 50H267.351V87.3254H269.719V50Z" fill="#E2112E"/>
<path d="M274.218 50H271.85V79.4411H274.218V50Z" fill="#E2112E"/>
<path d="M278.954 50H276.586V87.3254H278.954V50Z" fill="#E2112E"/>
<path d="M283.69 50H281.322V72.2555H283.69V50Z" fill="#E2112E"/>
<path d="M288.426 50H286.058V79.4411H288.426V50Z" fill="#E2112E"/>
<path d="M293.162 50H290.794V64.7705H293.162V50Z" fill="#E2112E"/>
<path d="M297.662 50H295.294V87.3254H297.662V50Z" fill="#E2112E"/>
<path d="M302.398 50H300.03V72.2555H302.398V50Z" fill="#E2112E"/>
<path d="M307.134 50H304.766V64.7705H307.134V50Z" fill="#E2112E"/>
<path d="M311.87 50H309.502V72.2555H311.87V50Z" fill="#E2112E"/>
<path d="M316.606 50H314.238V79.4411H316.606V50Z" fill="#E2112E"/>
<path d="M321.105 50H318.737V72.2555H321.105V50Z" fill="#E2112E"/>
<path d="M325.841 50H323.473V66.6667H325.841V50Z" fill="#E2112E"/>
<path d="M330.577 50H328.209V61.1776H330.577V50Z" fill="#E2112E"/>
<path d="M335.313 50H332.945V55.5888H335.313V50Z" fill="#E2112E"/>
<path d="M340.05 50H337.682V53.6926H340.05V50Z" fill="#E2112E"/>
<path d="M344.549 50H342.181V52.1956H344.549V50Z" fill="#E2112E"/>
<path d="M349.285 50H346.917V53.2934H349.285V50Z" fill="#E2112E"/>
<path d="M354.021 50H351.653V55.5888H354.021V50Z" fill="#E2112E"/>
<path d="M358.757 50H356.389V58.7824H358.757V50Z" fill="#E2112E"/>
<path d="M363.493 50H361.125V64.5709H363.493V50Z" fill="#E2112E"/>
<path d="M471.238 50H468.87V67.1657H471.238V50Z" fill="#E2112E"/>
<path d="M475.975 50H473.607V80.6387H475.975V50Z" fill="#E2112E"/>
<path d="M480.711 50H478.343V62.3753H480.711V50Z" fill="#E2112E"/>
<path d="M457.267 50H454.899V55.5888H457.267V50Z" fill="#E2112E"/>
<path d="M462.003 50H459.635V58.7824H462.003V50Z" fill="#E2112E"/>
<path d="M466.739 50H464.371V64.5709H466.739V50Z" fill="#E2112E"/>
<path d="M91.4061 50H89.0381V72.2555H91.4061V50Z" fill="#E2112E"/>
<path d="M96.1422 50H93.7742V92.515H96.1422V50Z" fill="#E2112E"/>
<path d="M100.878 50H98.5103V84.6307H100.878V50Z" fill="#E2112E"/>
<path d="M105.614 50H103.246V77.1457H105.614V50Z" fill="#E2112E"/>
<path d="M110.35 50H107.982V72.0559H110.35V50Z" fill="#E2112E"/>
<path d="M114.849 50H112.481V62.0759H114.849V50Z" fill="#E2112E"/>
<path d="M119.586 50H117.218V57.2854H119.586V50Z" fill="#E2112E"/>
<path d="M124.322 50H121.954V52.3952H124.322V50Z" fill="#E2112E"/>
<path d="M129.058 50H126.69V51.8962H129.058V50Z" fill="#E2112E"/>
<path d="M133.794 50H131.426V59.1816H133.794V50Z" fill="#E2112E"/>
<path d="M138.293 50H135.925V61.6766H138.293V50Z" fill="#E2112E"/>
<path d="M143.029 50H140.661V55.2894H143.029V50Z" fill="#E2112E"/>
<path d="M147.765 50H145.397V53.5928H147.765V50Z" fill="#E2112E"/>
<path d="M152.501 50H150.133V57.984H152.501V50Z" fill="#E2112E"/>
<path d="M157.237 50H154.869V63.5729H157.237V50Z" fill="#E2112E"/>
<path d="M161.737 50H159.369V72.2555H161.737V50Z" fill="#E2112E"/>
<path d="M166.473 50H164.105V92.515H166.473V50Z" fill="#E2112E"/>
<path d="M171.209 50H168.841V100H171.209V50Z" fill="#E2112E"/>
<path d="M175.945 50H173.577V96.8064H175.945V50Z" fill="#E2112E"/>
<path d="M846.098 50H843.73V67.1657H846.098V50Z" fill="#E2112E"/>
<path d="M850.834 50H848.466V80.6387H850.834V50Z" fill="#E2112E"/>
<path d="M855.57 50H853.202V62.3753H855.57V50Z" fill="#E2112E"/>
<path d="M860.069 50H857.701V84.2315H860.069V50Z" fill="#E2112E"/>
<path d="M864.806 50H862.438V84.2315H864.806V50Z" fill="#E2112E"/>
<path d="M869.542 50H867.174V81.5369H869.542V50Z" fill="#E2112E"/>
<path d="M874.278 50H871.91V65.3693H874.278V50Z" fill="#E2112E"/>
<path d="M879.014 50H876.646V93.8124H879.014V50Z" fill="#E2112E"/>
<path d="M883.513 50H881.145V88.1238H883.513V50Z" fill="#E2112E"/>
<path d="M888.249 50H885.881V80.7385H888.249V50Z" fill="#E2112E"/>
<path d="M897.721 50H895.353V63.5729H897.721V50Z" fill="#E2112E"/>
<path d="M892.748 50H890.38V56.7864H892.748V50Z" fill="#E2112E"/>
<path d="M902.457 50H900.089V69.0619H902.457V50Z" fill="#E2112E"/>
<path d="M906.956 50H904.588V80.6387H906.956V50Z" fill="#E2112E"/>
<path d="M911.692 50H909.324V95.509H911.692V50Z" fill="#E2112E"/>
<path d="M916.429 50H914.061V85.4291H916.429V50Z" fill="#E2112E"/>
<path d="M921.165 50H918.797V91.018H921.165V50Z" fill="#E2112E"/>
<path d="M925.901 50H923.533V81.5369H925.901V50Z" fill="#E2112E"/>
<path d="M930.4 50H928.032V72.2555H930.4V50Z" fill="#E2112E"/>
<path d="M480.474 50H478.106V87.3254H480.474V50Z" fill="#E2112E"/>
<path d="M484.973 50H482.605V72.2555H484.973V50Z" fill="#E2112E"/>
<path d="M489.709 50H487.341V79.4411H489.709V50Z" fill="#E2112E"/>
<path d="M494.445 50H492.077V64.7705H494.445V50Z" fill="#E2112E"/>
<path d="M499.181 50H496.813V87.3254H499.181V50Z" fill="#E2112E"/>
<path d="M503.917 50H501.549V72.2555H503.917V50Z" fill="#E2112E"/>
<path d="M508.417 50H506.049V64.7705H508.417V50Z" fill="#E2112E"/>
<path d="M513.153 50H510.785V72.2555H513.153V50Z" fill="#E2112E"/>
<path d="M517.889 50H515.521V79.4411H517.889V50Z" fill="#E2112E"/>
<path d="M522.625 50H520.257V72.2555H522.625V50Z" fill="#E2112E"/>
<path d="M527.361 50H524.993V66.6667H527.361V50Z" fill="#E2112E"/>
<path d="M531.86 50H529.492V61.1776H531.86V50Z" fill="#E2112E"/>
<path d="M536.596 50H534.228V55.5888H536.596V50Z" fill="#E2112E"/>
<path d="M541.332 50H538.964V53.6926H541.332V50Z" fill="#E2112E"/>
<path d="M546.068 50H543.7V52.1956H546.068V50Z" fill="#E2112E"/>
<path d="M550.804 50H548.436V53.2934H550.804V50Z" fill="#E2112E"/>
<path d="M555.304 50H552.936V55.5888H555.304V50Z" fill="#E2112E"/>
<path d="M560.04 50H557.672V58.7824H560.04V50Z" fill="#E2112E"/>
<path d="M564.776 50H562.408V64.5709H564.776V50Z" fill="#E2112E"/>
<path d="M658.55 50H656.182V84.2315H658.55V50Z" fill="#E2112E"/>
<path d="M663.286 50H660.918V59.5808H663.286V50Z" fill="#E2112E"/>
<path d="M667.785 50H665.417V81.5369H667.785V50Z" fill="#E2112E"/>
<path d="M672.521 50H670.153V65.3693H672.521V50Z" fill="#E2112E"/>
<path d="M677.257 50H674.889V70.5589H677.257V50Z" fill="#E2112E"/>
<path d="M681.994 50H679.625V67.9641H681.994V50Z" fill="#E2112E"/>
<path d="M686.73 50H684.362V64.4711H686.73V50Z" fill="#E2112E"/>
<path d="M691.229 50H688.861V58.5828H691.229V50Z" fill="#E2112E"/>
<path d="M695.965 50H693.597V63.5729H695.965V50Z" fill="#E2112E"/>
<path d="M700.701 50H698.333V69.0619H700.701V50Z" fill="#E2112E"/>
<path d="M705.437 50H703.069V64.4711H705.437V50Z" fill="#E2112E"/>
<path d="M710.173 50H707.805V71.4571H710.173V50Z" fill="#E2112E"/>
<path d="M714.672 50H712.304V66.6667H714.672V50Z" fill="#E2112E"/>
<path d="M719.408 50H717.04V69.3613H719.408V50Z" fill="#E2112E"/>
<path d="M724.144 50H721.776V64.8703H724.144V50Z" fill="#E2112E"/>
<path d="M728.88 50H726.512V72.2555H728.88V50Z" fill="#E2112E"/>
<path d="M733.617 50H731.249V71.8563H733.617V50Z" fill="#E2112E"/>
<path d="M738.116 50H735.748V64.1717H738.116V50Z" fill="#E2112E"/>
<path d="M742.852 50H740.484V59.3812H742.852V50Z" fill="#E2112E"/>
<path d="M747.588 50H745.22V87.3254H747.588V50Z" fill="#E2112E"/>
<path d="M752.324 50H749.956V79.4411H752.324V50Z" fill="#E2112E"/>
<path d="M757.06 50H754.692V87.3254H757.06V50Z" fill="#E2112E"/>
<path d="M761.796 50H759.428V72.2555H761.796V50Z" fill="#E2112E"/>
<path d="M766.295 50H763.927V79.4411H766.295V50Z" fill="#E2112E"/>
<path d="M771.031 50H768.663V64.7705H771.031V50Z" fill="#E2112E"/>
<path d="M775.768 50H773.4V87.3254H775.768V50Z" fill="#E2112E"/>
<path d="M780.504 50H778.136V72.2555H780.504V50Z" fill="#E2112E"/>
<path d="M785.24 50H782.872V64.7705H785.24V50Z" fill="#E2112E"/>
<path d="M789.739 50H787.371V72.2555H789.739V50Z" fill="#E2112E"/>
<path d="M794.475 50H792.107V79.4411H794.475V50Z" fill="#E2112E"/>
<path d="M799.211 50H796.843V72.2555H799.211V50Z" fill="#E2112E"/>
<path d="M803.947 50H801.579V66.6667H803.947V50Z" fill="#E2112E"/>
<path d="M808.683 50H806.315V61.1776H808.683V50Z" fill="#E2112E"/>
<path d="M813.182 50H810.814V55.5888H813.182V50Z" fill="#E2112E"/>
<path d="M817.918 50H815.55V53.6926H817.918V50Z" fill="#E2112E"/>
<path d="M822.655 50H820.286V52.1956H822.655V50Z" fill="#E2112E"/>
<path d="M827.391 50H825.023V53.2934H827.391V50Z" fill="#E2112E"/>
<path d="M832.127 50H829.759V55.5888H832.127V50Z" fill="#E2112E"/>
<path d="M836.626 50H834.258V58.7824H836.626V50Z" fill="#E2112E"/>
<path d="M841.362 50H838.994V64.5709H841.362V50Z" fill="#E2112E"/>
<path d="M949.344 50H946.976V67.1657H949.344V50Z" fill="#E2112E"/>
<path d="M954.08 50H951.712V80.6387H954.08V50Z" fill="#E2112E"/>
<path d="M958.816 50H956.448V62.3753H958.816V50Z" fill="#E2112E"/>
<path d="M935.373 50H933.005V55.5888H935.373V50Z" fill="#E2112E"/>
<path d="M939.872 50H937.504V58.7824H939.872V50Z" fill="#E2112E"/>
<path d="M944.608 50H942.24V64.5709H944.608V50Z" fill="#E2112E"/>
<path d="M569.512 50H567.144V72.2555H569.512V50Z" fill="#E2112E"/>
<path d="M574.248 50H571.88V92.515H574.248V50Z" fill="#E2112E"/>
<path d="M578.747 50H576.379V84.6307H578.747V50Z" fill="#E2112E"/>
<path d="M583.483 50H581.115V77.1457H583.483V50Z" fill="#E2112E"/>
<path d="M588.219 50H585.851V72.0559H588.219V50Z" fill="#E2112E"/>
<path d="M592.955 50H590.587V62.0759H592.955V50Z" fill="#E2112E"/>
<path d="M597.692 50H595.323V57.2854H597.692V50Z" fill="#E2112E"/>
<path d="M602.428 50H600.06V52.3952H602.428V50Z" fill="#E2112E"/>
<path d="M606.927 50H604.559V51.8962H606.927V50Z" fill="#E2112E"/>
<path d="M611.663 50H609.295V59.1816H611.663V50Z" fill="#E2112E"/>
<path d="M616.399 50H614.031V61.6766H616.399V50Z" fill="#E2112E"/>
<path d="M621.135 50H618.767V55.2894H621.135V50Z" fill="#E2112E"/>
<path d="M625.871 50H623.503V53.5928H625.871V50Z" fill="#E2112E"/>
<path d="M630.371 50H628.002V57.984H630.371V50Z" fill="#E2112E"/>
<path d="M635.106 50H632.738V63.5729H635.106V50Z" fill="#E2112E"/>
<path d="M639.842 50H637.474V72.2555H639.842V50Z" fill="#E2112E"/>
<path d="M644.579 50H642.21V71.2575H644.579V50Z" fill="#E2112E"/>
<path d="M649.315 50H646.947V74.9501H649.315V50Z" fill="#E2112E"/>
<path d="M653.814 50H651.446V73.3533H653.814V50Z" fill="#E2112E"/>
<path d="M1329.18 32.7346H1326.81V49.9003H1329.18V32.7346Z" fill="#E2112E"/>
<path d="M1333.91 19.3613H1331.54V50.0001H1333.91V19.3613Z" fill="#E2112E"/>
<path d="M1338.65 37.6248H1336.28V50H1338.65V37.6248Z" fill="#E2112E"/>
<path d="M1343.38 15.7686H1341.02V50.0001H1343.38V15.7686Z" fill="#E2112E"/>
<path d="M1347.88 15.7686H1345.52V50.0001H1347.88V15.7686Z" fill="#E2112E"/>
<path d="M1352.62 18.4631H1350.25V50.0001H1352.62V18.4631Z" fill="#E2112E"/>
<path d="M1357.36 34.6309H1354.99V50.0001H1357.36V34.6309Z" fill="#E2112E"/>
<path d="M1362.09 6.18774H1359.72V50.0001H1362.09V6.18774Z" fill="#E2112E"/>
<path d="M1366.83 11.7764H1364.46V49.9001H1366.83V11.7764Z" fill="#E2112E"/>
<path d="M1371.56 19.2615H1369.2V50H1371.56V19.2615Z" fill="#E2112E"/>
<path d="M1380.8 36.4272H1378.43V50.0001H1380.8V36.4272Z" fill="#E2112E"/>
<path d="M1376.06 43.2136H1373.69V50H1376.06V43.2136Z" fill="#E2112E"/>
<path d="M1385.53 30.938H1383.17V49.9999H1385.53V30.938Z" fill="#E2112E"/>
<path d="M1390.27 19.3613H1387.9V50.0001H1390.27V19.3613Z" fill="#E2112E"/>
<path d="M1395.01 4.49097H1392.64V49.9999H1395.01V4.49097Z" fill="#E2112E"/>
<path d="M1399.51 14.5708H1397.14V49.9999H1399.51V14.5708Z" fill="#E2112E"/>
<path d="M1404.24 8.88232H1401.87V49.9003H1404.24V8.88232Z" fill="#E2112E"/>
<path d="M1408.98 18.4631H1406.61V50.0001H1408.98V18.4631Z" fill="#E2112E"/>
<path d="M1413.71 27.6448H1411.35V49.9003H1413.71V27.6448Z" fill="#E2112E"/>
<path d="M963.552 12.6747H961.183V50H963.552V12.6747Z" fill="#E2112E"/>
<path d="M968.288 27.6448H965.92V49.9003H968.288V27.6448Z" fill="#E2112E"/>
<path d="M973.024 20.5588H970.656V50H973.024V20.5588Z" fill="#E2112E"/>
<path d="M977.523 35.1296H975.155V49.9001H977.523V35.1296Z" fill="#E2112E"/>
<path d="M982.259 12.6746H979.891V49.9999H982.259V12.6746Z" fill="#E2112E"/>
<path d="M986.995 27.6448H984.627V49.9003H986.995V27.6448Z" fill="#E2112E"/>
<path d="M991.731 35.1296H989.363V49.9001H991.731V35.1296Z" fill="#E2112E"/>
<path d="M996.467 27.6448H994.099V49.9003H996.467V27.6448Z" fill="#E2112E"/>
<path d="M1000.97 20.5588H998.598V50H1000.97V20.5588Z" fill="#E2112E"/>
<path d="M1005.7 27.6448H1003.33V49.9003H1005.7V27.6448Z" fill="#E2112E"/>
<path d="M1010.44 33.3333H1008.07V49.9999H1010.44V33.3333Z" fill="#E2112E"/>
<path d="M1015.17 38.8223H1012.81V49.9999H1015.17V38.8223Z" fill="#E2112E"/>
<path d="M1019.91 44.4111H1017.54V50H1019.91V44.4111Z" fill="#E2112E"/>
<path d="M1024.41 46.3074H1022.04V50H1024.41V46.3074Z" fill="#E2112E"/>
<path d="M1029.15 47.7046H1026.78V49.9002H1029.15V47.7046Z" fill="#E2112E"/>
<path d="M1033.88 46.7065H1031.51V50H1033.88V46.7065Z" fill="#E2112E"/>
<path d="M1038.62 44.4111H1036.25V50H1038.62V44.4111Z" fill="#E2112E"/>
<path d="M1043.35 41.2175H1040.99V50H1043.35V41.2175Z" fill="#E2112E"/>
<path d="M1047.85 35.4292H1045.49V50.0001H1047.85V35.4292Z" fill="#E2112E"/>
<path d="M1141.63 15.7686H1139.26V50.0001H1141.63V15.7686Z" fill="#E2112E"/>
<path d="M1146.36 40.4192H1144V50H1146.36V40.4192Z" fill="#E2112E"/>
<path d="M1151.1 18.4631H1148.73V50.0001H1151.1V18.4631Z" fill="#E2112E"/>
<path d="M1155.84 34.6309H1153.47V50.0001H1155.84V34.6309Z" fill="#E2112E"/>
<path d="M1160.34 29.4412H1157.97V50H1160.34V29.4412Z" fill="#E2112E"/>
<path d="M1165.07 32.0359H1162.7V50H1165.07V32.0359Z" fill="#E2112E"/>
<path d="M1169.81 35.5288H1167.44V49.9999H1169.81V35.5288Z" fill="#E2112E"/>
<path d="M1174.54 41.4172H1172.18V50.0001H1174.54V41.4172Z" fill="#E2112E"/>
<path d="M1179.28 36.4272H1176.91V50.0001H1179.28V36.4272Z" fill="#E2112E"/>
<path d="M1183.78 30.938H1181.41V49.9999H1183.78V30.938Z" fill="#E2112E"/>
<path d="M1188.51 35.5288H1186.15V49.9999H1188.51V35.5288Z" fill="#E2112E"/>
<path d="M1193.25 28.543H1190.88V50.0001H1193.25V28.543Z" fill="#E2112E"/>
<path d="M1197.99 33.3333H1195.62V49.9999H1197.99V33.3333Z" fill="#E2112E"/>
<path d="M1202.72 30.6387H1200.35V49.9999H1202.72V30.6387Z" fill="#E2112E"/>
<path d="M1207.22 35.1296H1204.85V49.9999H1207.22V35.1296Z" fill="#E2112E"/>
<path d="M1211.96 27.6448H1209.59V49.9003H1211.96V27.6448Z" fill="#E2112E"/>
<path d="M1216.69 28.0439H1214.33V49.9002H1216.69V28.0439Z" fill="#E2112E"/>
<path d="M1221.43 35.8284H1219.06V50H1221.43V35.8284Z" fill="#E2112E"/>
<path d="M1226.17 40.6187H1223.8V49.9999H1226.17V40.6187Z" fill="#E2112E"/>
<path d="M1230.9 12.6746H1228.53V49.9999H1230.9V12.6746Z" fill="#E2112E"/>
<path d="M1235.4 20.5588H1233.03V50H1235.4V20.5588Z" fill="#E2112E"/>
<path d="M1240.14 12.6746H1237.77V49.9999H1240.14V12.6746Z" fill="#E2112E"/>
<path d="M1244.87 27.6448H1242.51V49.9003H1244.87V27.6448Z" fill="#E2112E"/>
<path d="M1249.61 20.5588H1247.24V50H1249.61V20.5588Z" fill="#E2112E"/>
<path d="M1254.35 35.1296H1251.98V49.9001H1254.35V35.1296Z" fill="#E2112E"/>
<path d="M1258.85 12.6746H1256.48V49.9999H1258.85V12.6746Z" fill="#E2112E"/>
<path d="M1263.58 27.6448H1261.21V49.9003H1263.58V27.6448Z" fill="#E2112E"/>
<path d="M1268.32 35.1296H1265.95V49.9001H1268.32V35.1296Z" fill="#E2112E"/>
<path d="M1273.05 27.6448H1270.69V49.9003H1273.05V27.6448Z" fill="#E2112E"/>
<path d="M1277.79 20.5588H1275.42V50H1277.79V20.5588Z" fill="#E2112E"/>
<path d="M1282.29 27.6448H1279.92V49.9003H1282.29V27.6448Z" fill="#E2112E"/>
<path d="M1287.02 33.3333H1284.66V49.9999H1287.02V33.3333Z" fill="#E2112E"/>
<path d="M1291.76 38.8223H1289.39V49.9999H1291.76V38.8223Z" fill="#E2112E"/>
<path d="M1296.5 44.4111H1294.13V50H1296.5V44.4111Z" fill="#E2112E"/>
<path d="M1301.23 46.3074H1298.87V50H1301.23V46.3074Z" fill="#E2112E"/>
<path d="M1305.73 47.7046H1303.36V49.9002H1305.73V47.7046Z" fill="#E2112E"/>
<path d="M1310.47 46.7065H1308.1V50H1310.47V46.7065Z" fill="#E2112E"/>
<path d="M1315.2 44.4111H1312.84V50H1315.2V44.4111Z" fill="#E2112E"/>
<path d="M1319.94 41.2175H1317.57V50H1319.94V41.2175Z" fill="#E2112E"/>
<path d="M1324.68 35.4292H1322.31V50.0001H1324.68V35.4292Z" fill="#E2112E"/>
<path d="M1432.42 32.7346H1430.05V49.9003H1432.42V32.7346Z" fill="#E2112E"/>
<path d="M1437.16 19.3613H1434.79V50.0001H1437.16V19.3613Z" fill="#E2112E"/>
<path d="M1441.89 37.6248H1439.53V50H1441.89V37.6248Z" fill="#E2112E"/>
<path d="M1418.45 44.4111H1416.08V50H1418.45V44.4111Z" fill="#E2112E"/>
<path d="M1423.19 41.2175H1420.82V50H1423.19V41.2175Z" fill="#E2112E"/>
<path d="M1427.92 35.4292H1425.55V50.0001H1427.92V35.4292Z" fill="#E2112E"/>
<path d="M1052.59 27.6448H1050.22V49.9003H1052.59V27.6448Z" fill="#E2112E"/>
<path d="M1057.33 7.38525H1054.96V49.9002H1057.33V7.38525Z" fill="#E2112E"/>
<path d="M1062.06 15.3691H1059.69V49.9999H1062.06V15.3691Z" fill="#E2112E"/>
<path d="M1066.8 22.8542H1064.43V50H1066.8V22.8542Z" fill="#E2112E"/>
<path d="M1071.53 27.9441H1069.17V50H1071.53V27.9441Z" fill="#E2112E"/>
<path d="M1076.03 37.9243H1073.66V50.0002H1076.03V37.9243Z" fill="#E2112E"/>
<path d="M1080.77 42.7146H1078.4V50H1080.77V42.7146Z" fill="#E2112E"/>
<path d="M1085.5 47.6047H1083.14V49.9999H1085.5V47.6047Z" fill="#E2112E"/>
<path d="M1090.24 48.1038H1087.87V50H1090.24V48.1038Z" fill="#E2112E"/>
<path d="M1094.98 40.8184H1092.61V50H1094.98V40.8184Z" fill="#E2112E"/>
<path d="M1099.48 38.3232H1097.11V49.9999H1099.48V38.3232Z" fill="#E2112E"/>
<path d="M1104.21 44.7107H1101.84V50.0001H1104.21V44.7107Z" fill="#E2112E"/>
<path d="M1108.95 46.3074H1106.58V49.9002H1108.95V46.3074Z" fill="#E2112E"/>
<path d="M1113.68 42.0161H1111.32V50.0001H1113.68V42.0161Z" fill="#E2112E"/>
<path d="M1118.42 36.4272H1116.05V50.0001H1118.42V36.4272Z" fill="#E2112E"/>
<path d="M1122.92 27.6448H1120.55V49.9003H1122.92V27.6448Z" fill="#E2112E"/>
<path d="M1127.66 7.38525H1125.29V49.9002H1127.66V7.38525Z" fill="#E2112E"/>
<path d="M1132.39 0H1130.02V50H1132.39V0Z" fill="#E2112E"/>
<path d="M1137.13 3.1936H1134.76V50H1137.13V3.1936Z" fill="#E2112E"/>
<path d="M1807.28 32.7346H1804.91V49.9003H1807.28V32.7346Z" fill="#E2112E"/>
<path d="M1812.02 19.3613H1809.65V50.0001H1812.02V19.3613Z" fill="#E2112E"/>
<path d="M1816.75 37.6248H1814.39V50H1816.75V37.6248Z" fill="#E2112E"/>
<path d="M1821.25 15.7686H1818.89V50.0001H1821.25V15.7686Z" fill="#E2112E"/>
<path d="M1825.99 15.7686H1823.62V50.0001H1825.99V15.7686Z" fill="#E2112E"/>
<path d="M1830.72 18.4631H1828.36V50.0001H1830.72V18.4631Z" fill="#E2112E"/>
<path d="M1835.46 34.6309H1833.09V50.0001H1835.46V34.6309Z" fill="#E2112E"/>
<path d="M1840.2 6.18774H1837.83V50.0001H1840.2V6.18774Z" fill="#E2112E"/>
<path d="M1844.7 11.7764H1842.33V49.9001H1844.7V11.7764Z" fill="#E2112E"/>
<path d="M1849.43 19.2615H1847.06V50H1849.43V19.2615Z" fill="#E2112E"/>
<path d="M1858.9 36.4272H1856.54V50.0001H1858.9V36.4272Z" fill="#E2112E"/>
<path d="M1853.93 43.2136H1851.56V50H1853.93V43.2136Z" fill="#E2112E"/>
<path d="M1863.64 30.938H1861.27V49.9999H1863.64V30.938Z" fill="#E2112E"/>
<path d="M1868.14 19.3613H1865.77V50.0001H1868.14V19.3613Z" fill="#E2112E"/>
<path d="M1872.88 4.49097H1870.51V49.9999H1872.88V4.49097Z" fill="#E2112E"/>
<path d="M1877.61 14.5708H1875.24V49.9999H1877.61V14.5708Z" fill="#E2112E"/>
<path d="M1882.35 8.88232H1879.98V49.9003H1882.35V8.88232Z" fill="#E2112E"/>
<path d="M1887.08 18.4631H1884.72V50.0001H1887.08V18.4631Z" fill="#E2112E"/>
<path d="M1891.58 27.6448H1889.22V49.9003H1891.58V27.6448Z" fill="#E2112E"/>
<path d="M1441.66 12.6746H1439.29V49.9999H1441.66V12.6746Z" fill="#E2112E"/>
<path d="M1446.16 27.6448H1443.79V49.9003H1446.16V27.6448Z" fill="#E2112E"/>
<path d="M1450.89 20.5588H1448.52V50H1450.89V20.5588Z" fill="#E2112E"/>
<path d="M1455.63 35.1296H1453.26V49.9001H1455.63V35.1296Z" fill="#E2112E"/>
<path d="M1460.36 12.6746H1458V49.9999H1460.36V12.6746Z" fill="#E2112E"/>
<path d="M1465.1 27.6448H1462.73V49.9003H1465.1V27.6448Z" fill="#E2112E"/>
<path d="M1469.6 35.1296H1467.23V49.9001H1469.6V35.1296Z" fill="#E2112E"/>
<path d="M1474.34 27.6448H1471.97V49.9003H1474.34V27.6448Z" fill="#E2112E"/>
<path d="M1479.07 20.5588H1476.7V50H1479.07V20.5588Z" fill="#E2112E"/>
<path d="M1483.81 27.6448H1481.44V49.9003H1483.81V27.6448Z" fill="#E2112E"/>
<path d="M1488.54 33.3333H1486.18V49.9999H1488.54V33.3333Z" fill="#E2112E"/>
<path d="M1493.04 38.8223H1490.68V49.9999H1493.04V38.8223Z" fill="#E2112E"/>
<path d="M1497.78 44.4111H1495.41V50H1497.78V44.4111Z" fill="#E2112E"/>
<path d="M1502.52 46.3074H1500.15V50H1502.52V46.3074Z" fill="#E2112E"/>
<path d="M1507.25 47.7046H1504.88V49.9002H1507.25V47.7046Z" fill="#E2112E"/>
<path d="M1511.99 46.7065H1509.62V50H1511.99V46.7065Z" fill="#E2112E"/>
<path d="M1516.49 44.4111H1514.12V50H1516.49V44.4111Z" fill="#E2112E"/>
<path d="M1521.22 41.2175H1518.85V50H1521.22V41.2175Z" fill="#E2112E"/>
<path d="M1525.96 35.4292H1523.59V50.0001H1525.96V35.4292Z" fill="#E2112E"/>
<path d="M1619.73 15.7686H1617.37V50.0001H1619.73V15.7686Z" fill="#E2112E"/>
<path d="M1624.47 40.4192H1622.1V50H1624.47V40.4192Z" fill="#E2112E"/>
<path d="M1628.97 18.4631H1626.6V50.0001H1628.97V18.4631Z" fill="#E2112E"/>
<path d="M1633.7 34.6309H1631.34V50.0001H1633.7V34.6309Z" fill="#E2112E"/>
<path d="M1638.44 29.4412H1636.07V50H1638.44V29.4412Z" fill="#E2112E"/>
<path d="M1643.18 32.0359H1640.81V50H1643.18V32.0359Z" fill="#E2112E"/>
<path d="M1647.91 35.5288H1645.54V49.9999H1647.91V35.5288Z" fill="#E2112E"/>
<path d="M1652.41 41.4172H1650.04V50.0001H1652.41V41.4172Z" fill="#E2112E"/>
<path d="M1657.15 36.4272H1654.78V50.0001H1657.15V36.4272Z" fill="#E2112E"/>
<path d="M1661.88 30.938H1659.52V49.9999H1661.88V30.938Z" fill="#E2112E"/>
<path d="M1666.62 35.5288H1664.25V49.9999H1666.62V35.5288Z" fill="#E2112E"/>
<path d="M1671.36 28.543H1668.99V50.0001H1671.36V28.543Z" fill="#E2112E"/>
<path d="M1675.86 33.3333H1673.49V49.9999H1675.86V33.3333Z" fill="#E2112E"/>
<path d="M1680.59 30.6387H1678.22V49.9999H1680.59V30.6387Z" fill="#E2112E"/>
<path d="M1685.33 35.1296H1682.96V49.9999H1685.33V35.1296Z" fill="#E2112E"/>
<path d="M1690.06 27.6448H1687.7V49.9003H1690.06V27.6448Z" fill="#E2112E"/>
<path d="M1694.8 28.0439H1692.43V49.9002H1694.8V28.0439Z" fill="#E2112E"/>
<path d="M1699.3 35.8284H1696.93V50H1699.3V35.8284Z" fill="#E2112E"/>
<path d="M1704.04 40.6187H1701.67V49.9999H1704.04V40.6187Z" fill="#E2112E"/>
<path d="M1708.77 12.6746H1706.4V49.9999H1708.77V12.6746Z" fill="#E2112E"/>
<path d="M1713.51 20.5588H1711.14V50H1713.51V20.5588Z" fill="#E2112E"/>
<path d="M1718.24 12.6746H1715.88V49.9999H1718.24V12.6746Z" fill="#E2112E"/>
<path d="M1722.98 27.6448H1720.61V49.9003H1722.98V27.6448Z" fill="#E2112E"/>
<path d="M1727.48 20.5588H1725.11V50H1727.48V20.5588Z" fill="#E2112E"/>
<path d="M1732.21 35.1296H1729.85V49.9001H1732.21V35.1296Z" fill="#E2112E"/>
<path d="M1736.95 12.6746H1734.58V49.9999H1736.95V12.6746Z" fill="#E2112E"/>
<path d="M1741.69 27.6448H1739.32V49.9003H1741.69V27.6448Z" fill="#E2112E"/>
<path d="M1746.42 35.1296H1744.06V49.9001H1746.42V35.1296Z" fill="#E2112E"/>
<path d="M1750.92 27.6448H1748.55V49.9003H1750.92V27.6448Z" fill="#E2112E"/>
<path d="M1755.66 20.5588H1753.29V50H1755.66V20.5588Z" fill="#E2112E"/>
<path d="M1760.39 27.6448H1758.03V49.9003H1760.39V27.6448Z" fill="#E2112E"/>
<path d="M1765.13 33.3333H1762.76V49.9999H1765.13V33.3333Z" fill="#E2112E"/>
<path d="M1769.87 38.8223H1767.5V49.9999H1769.87V38.8223Z" fill="#E2112E"/>
<path d="M1774.37 44.4111H1772V50H1774.37V44.4111Z" fill="#E2112E"/>
<path d="M1779.1 46.3074H1776.73V50H1779.1V46.3074Z" fill="#E2112E"/>
<path d="M1783.84 47.7046H1781.47V49.9002H1783.84V47.7046Z" fill="#E2112E"/>
<path d="M1788.57 46.7065H1786.21V50H1788.57V46.7065Z" fill="#E2112E"/>
<path d="M1793.31 44.4111H1790.94V50H1793.31V44.4111Z" fill="#E2112E"/>
<path d="M1797.81 41.2175H1795.44V50H1797.81V41.2175Z" fill="#E2112E"/>
<path d="M1802.55 35.4292H1800.18V50.0001H1802.55V35.4292Z" fill="#E2112E"/>
<path d="M1910.53 32.7346H1908.16V49.9003H1910.53V32.7346Z" fill="#E2112E"/>
<path d="M1915.26 19.3613H1912.9V50.0001H1915.26V19.3613Z" fill="#E2112E"/>
<path d="M1920 37.6248H1917.63V50H1920V37.6248Z" fill="#E2112E"/>
<path d="M1896.56 44.4111H1894.19V50H1896.56V44.4111Z" fill="#E2112E"/>
<path d="M1901.06 41.2175H1898.69V50H1901.06V41.2175Z" fill="#E2112E"/>
<path d="M1905.79 35.4292H1903.42V50.0001H1905.79V35.4292Z" fill="#E2112E"/>
<path d="M1530.7 27.6448H1528.33V49.9003H1530.7V27.6448Z" fill="#E2112E"/>
<path d="M1535.43 7.38525H1533.06V49.9002H1535.43V7.38525Z" fill="#E2112E"/>
<path d="M1539.93 15.3691H1537.56V49.9999H1539.93V15.3691Z" fill="#E2112E"/>
<path d="M1544.67 22.8542H1542.3V50H1544.67V22.8542Z" fill="#E2112E"/>
<path d="M1549.4 27.9441H1547.03V50H1549.4V27.9441Z" fill="#E2112E"/>
<path d="M1554.14 37.9243H1551.77V50.0002H1554.14V37.9243Z" fill="#E2112E"/>
<path d="M1558.87 42.7146H1556.51V50H1558.87V42.7146Z" fill="#E2112E"/>
<path d="M1563.61 47.6047H1561.24V49.9999H1563.61V47.6047Z" fill="#E2112E"/>
<path d="M1568.11 48.1038H1565.74V50H1568.11V48.1038Z" fill="#E2112E"/>
<path d="M1572.85 40.8184H1570.48V50H1572.85V40.8184Z" fill="#E2112E"/>
<path d="M1577.58 38.3232H1575.21V49.9999H1577.58V38.3232Z" fill="#E2112E"/>
<path d="M1582.32 44.7107H1579.95V50.0001H1582.32V44.7107Z" fill="#E2112E"/>
<path d="M1587.05 46.3074H1584.69V49.9002H1587.05V46.3074Z" fill="#E2112E"/>
<path d="M1591.55 42.0161H1589.19V50.0001H1591.55V42.0161Z" fill="#E2112E"/>
<path d="M1596.29 36.4272H1593.92V50.0001H1596.29V36.4272Z" fill="#E2112E"/>
<path d="M1601.03 27.6448H1598.66V49.9003H1601.03V27.6448Z" fill="#E2112E"/>
<path d="M1605.76 28.7424H1603.39V49.9999H1605.76V28.7424Z" fill="#E2112E"/>
<path d="M1610.5 24.9502H1608.13V49.9003H1610.5V24.9502Z" fill="#E2112E"/>
<path d="M1615 26.5469H1612.63V49.9002H1615V26.5469Z" fill="#E2112E"/>
<path d="M1329.18 50H1326.81V67.1657H1329.18V50Z" fill="#E2112E"/>
<path d="M1333.91 50H1331.54V80.6387H1333.91V50Z" fill="#E2112E"/>
<path d="M1338.65 50H1336.28V62.3753H1338.65V50Z" fill="#E2112E"/>
<path d="M1343.38 50H1341.02V84.2315H1343.38V50Z" fill="#E2112E"/>
<path d="M1347.88 50H1345.52V84.2315H1347.88V50Z" fill="#E2112E"/>
<path d="M1352.62 50H1350.25V81.5369H1352.62V50Z" fill="#E2112E"/>
<path d="M1357.36 50H1354.99V65.3693H1357.36V50Z" fill="#E2112E"/>
<path d="M1362.09 50H1359.72V93.8124H1362.09V50Z" fill="#E2112E"/>
<path d="M1366.83 50H1364.46V88.1238H1366.83V50Z" fill="#E2112E"/>
<path d="M1371.56 50H1369.2V80.7385H1371.56V50Z" fill="#E2112E"/>
<path d="M1380.8 50H1378.43V63.5729H1380.8V50Z" fill="#E2112E"/>
<path d="M1376.06 50H1373.69V56.7864H1376.06V50Z" fill="#E2112E"/>
<path d="M1385.53 50H1383.17V69.0619H1385.53V50Z" fill="#E2112E"/>
<path d="M1390.27 50H1387.9V80.6387H1390.27V50Z" fill="#E2112E"/>
<path d="M1395.01 50H1392.64V95.509H1395.01V50Z" fill="#E2112E"/>
<path d="M1399.51 50H1397.14V85.4291H1399.51V50Z" fill="#E2112E"/>
<path d="M1404.24 50H1401.87V91.018H1404.24V50Z" fill="#E2112E"/>
<path d="M1408.98 50H1406.61V81.5369H1408.98V50Z" fill="#E2112E"/>
<path d="M1413.71 50H1411.35V72.2555H1413.71V50Z" fill="#E2112E"/>
<path d="M963.552 50H961.183V87.3254H963.552V50Z" fill="#E2112E"/>
<path d="M968.288 50H965.92V72.2555H968.288V50Z" fill="#E2112E"/>
<path d="M973.024 50H970.656V79.4411H973.024V50Z" fill="#E2112E"/>
<path d="M977.523 50H975.155V64.7705H977.523V50Z" fill="#E2112E"/>
<path d="M982.259 50H979.891V87.3254H982.259V50Z" fill="#E2112E"/>
<path d="M986.995 50H984.627V72.2555H986.995V50Z" fill="#E2112E"/>
<path d="M991.731 50H989.363V64.7705H991.731V50Z" fill="#E2112E"/>
<path d="M996.467 50H994.099V72.2555H996.467V50Z" fill="#E2112E"/>
<path d="M1000.97 50H998.598V79.4411H1000.97V50Z" fill="#E2112E"/>
<path d="M1005.7 50H1003.33V72.2555H1005.7V50Z" fill="#E2112E"/>
<path d="M1010.44 50H1008.07V66.6667H1010.44V50Z" fill="#E2112E"/>
<path d="M1015.17 50H1012.81V61.1776H1015.17V50Z" fill="#E2112E"/>
<path d="M1019.91 50H1017.54V55.5888H1019.91V50Z" fill="#E2112E"/>
<path d="M1024.41 50H1022.04V53.6926H1024.41V50Z" fill="#E2112E"/>
<path d="M1029.15 50H1026.78V52.1956H1029.15V50Z" fill="#E2112E"/>
<path d="M1033.88 50H1031.51V53.2934H1033.88V50Z" fill="#E2112E"/>
<path d="M1038.62 50H1036.25V55.5888H1038.62V50Z" fill="#E2112E"/>
<path d="M1043.35 50H1040.99V58.7824H1043.35V50Z" fill="#E2112E"/>
<path d="M1047.85 50H1045.49V64.5709H1047.85V50Z" fill="#E2112E"/>
<path d="M1141.63 50H1139.26V84.2315H1141.63V50Z" fill="#E2112E"/>
<path d="M1146.36 50H1144V59.5808H1146.36V50Z" fill="#E2112E"/>
<path d="M1151.1 50H1148.73V81.5369H1151.1V50Z" fill="#E2112E"/>
<path d="M1155.84 50H1153.47V65.3693H1155.84V50Z" fill="#E2112E"/>
<path d="M1160.34 50H1157.97V70.5589H1160.34V50Z" fill="#E2112E"/>
<path d="M1165.07 50H1162.7V67.9641H1165.07V50Z" fill="#E2112E"/>
<path d="M1169.81 50H1167.44V64.4711H1169.81V50Z" fill="#E2112E"/>
<path d="M1174.54 50H1172.18V58.5828H1174.54V50Z" fill="#E2112E"/>
<path d="M1179.28 50H1176.91V63.5729H1179.28V50Z" fill="#E2112E"/>
<path d="M1183.78 50H1181.41V69.0619H1183.78V50Z" fill="#E2112E"/>
<path d="M1188.51 50H1186.15V64.4711H1188.51V50Z" fill="#E2112E"/>
<path d="M1193.25 50H1190.88V71.4571H1193.25V50Z" fill="#E2112E"/>
<path d="M1197.99 50H1195.62V66.6667H1197.99V50Z" fill="#E2112E"/>
<path d="M1202.72 50H1200.35V69.3613H1202.72V50Z" fill="#E2112E"/>
<path d="M1207.22 50H1204.85V64.8703H1207.22V50Z" fill="#E2112E"/>
<path d="M1211.96 50H1209.59V72.2555H1211.96V50Z" fill="#E2112E"/>
<path d="M1216.69 50H1214.33V71.8563H1216.69V50Z" fill="#E2112E"/>
<path d="M1221.43 50H1219.06V64.1717H1221.43V50Z" fill="#E2112E"/>
<path d="M1226.17 50H1223.8V59.3812H1226.17V50Z" fill="#E2112E"/>
<path d="M1230.9 50H1228.53V87.3254H1230.9V50Z" fill="#E2112E"/>
<path d="M1235.4 50H1233.03V79.4411H1235.4V50Z" fill="#E2112E"/>
<path d="M1240.14 50H1237.77V87.3254H1240.14V50Z" fill="#E2112E"/>
<path d="M1244.87 50H1242.51V72.2555H1244.87V50Z" fill="#E2112E"/>
<path d="M1249.61 50H1247.24V79.4411H1249.61V50Z" fill="#E2112E"/>
<path d="M1254.35 50H1251.98V64.7705H1254.35V50Z" fill="#E2112E"/>
<path d="M1258.85 50H1256.48V87.3254H1258.85V50Z" fill="#E2112E"/>
<path d="M1263.58 50H1261.21V72.2555H1263.58V50Z" fill="#E2112E"/>
<path d="M1268.32 50H1265.95V64.7705H1268.32V50Z" fill="#E2112E"/>
<path d="M1273.05 50H1270.69V72.2555H1273.05V50Z" fill="#E2112E"/>
<path d="M1277.79 50H1275.42V79.4411H1277.79V50Z" fill="#E2112E"/>
<path d="M1282.29 50H1279.92V72.2555H1282.29V50Z" fill="#E2112E"/>
<path d="M1287.02 50H1284.66V66.6667H1287.02V50Z" fill="#E2112E"/>
<path d="M1291.76 50H1289.39V61.1776H1291.76V50Z" fill="#E2112E"/>
<path d="M1296.5 50H1294.13V55.5888H1296.5V50Z" fill="#E2112E"/>
<path d="M1301.23 50H1298.87V53.6926H1301.23V50Z" fill="#E2112E"/>
<path d="M1305.73 50H1303.36V52.1956H1305.73V50Z" fill="#E2112E"/>
<path d="M1310.47 50H1308.1V53.2934H1310.47V50Z" fill="#E2112E"/>
<path d="M1315.2 50H1312.84V55.5888H1315.2V50Z" fill="#E2112E"/>
<path d="M1319.94 50H1317.57V58.7824H1319.94V50Z" fill="#E2112E"/>
<path d="M1324.68 50H1322.31V64.5709H1324.68V50Z" fill="#E2112E"/>
<path d="M1432.42 50H1430.05V67.1657H1432.42V50Z" fill="#E2112E"/>
<path d="M1437.16 50H1434.79V80.6387H1437.16V50Z" fill="#E2112E"/>
<path d="M1441.89 50H1439.53V62.3753H1441.89V50Z" fill="#E2112E"/>
<path d="M1418.45 50H1416.08V55.5888H1418.45V50Z" fill="#E2112E"/>
<path d="M1423.19 50H1420.82V58.7824H1423.19V50Z" fill="#E2112E"/>
<path d="M1427.92 50H1425.55V64.5709H1427.92V50Z" fill="#E2112E"/>
<path d="M1052.59 50H1050.22V72.2555H1052.59V50Z" fill="#E2112E"/>
<path d="M1057.33 50H1054.96V92.515H1057.33V50Z" fill="#E2112E"/>
<path d="M1062.06 50H1059.69V84.6307H1062.06V50Z" fill="#E2112E"/>
<path d="M1066.8 50H1064.43V77.1457H1066.8V50Z" fill="#E2112E"/>
<path d="M1071.53 50H1069.17V72.0559H1071.53V50Z" fill="#E2112E"/>
<path d="M1076.03 50H1073.66V62.0759H1076.03V50Z" fill="#E2112E"/>
<path d="M1080.77 50H1078.4V57.2854H1080.77V50Z" fill="#E2112E"/>
<path d="M1085.5 50H1083.14V52.3952H1085.5V50Z" fill="#E2112E"/>
<path d="M1090.24 50H1087.87V51.8962H1090.24V50Z" fill="#E2112E"/>
<path d="M1094.98 50H1092.61V59.1816H1094.98V50Z" fill="#E2112E"/>
<path d="M1099.48 50H1097.11V61.6766H1099.48V50Z" fill="#E2112E"/>
<path d="M1104.21 50H1101.84V55.2894H1104.21V50Z" fill="#E2112E"/>
<path d="M1108.95 50H1106.58V53.5928H1108.95V50Z" fill="#E2112E"/>
<path d="M1113.68 50H1111.32V57.984H1113.68V50Z" fill="#E2112E"/>
<path d="M1118.42 50H1116.05V63.5729H1118.42V50Z" fill="#E2112E"/>
<path d="M1122.92 50H1120.55V72.2555H1122.92V50Z" fill="#E2112E"/>
<path d="M1127.66 50H1125.29V92.515H1127.66V50Z" fill="#E2112E"/>
<path d="M1132.39 50H1130.02V100H1132.39V50Z" fill="#E2112E"/>
<path d="M1137.13 50H1134.76V96.8064H1137.13V50Z" fill="#E2112E"/>
<path d="M1807.28 50H1804.91V67.1657H1807.28V50Z" fill="#E2112E"/>
<path d="M1812.02 50H1809.65V80.6387H1812.02V50Z" fill="#E2112E"/>
<path d="M1816.75 50H1814.39V62.3753H1816.75V50Z" fill="#E2112E"/>
<path d="M1821.25 50H1818.89V84.2315H1821.25V50Z" fill="#E2112E"/>
<path d="M1825.99 50H1823.62V84.2315H1825.99V50Z" fill="#E2112E"/>
<path d="M1830.72 50H1828.36V81.5369H1830.72V50Z" fill="#E2112E"/>
<path d="M1835.46 50H1833.09V65.3693H1835.46V50Z" fill="#E2112E"/>
<path d="M1840.2 50H1837.83V93.8124H1840.2V50Z" fill="#E2112E"/>
<path d="M1844.7 50H1842.33V88.1238H1844.7V50Z" fill="#E2112E"/>
<path d="M1849.43 50H1847.06V80.7385H1849.43V50Z" fill="#E2112E"/>
<path d="M1858.9 50H1856.54V63.5729H1858.9V50Z" fill="#E2112E"/>
<path d="M1853.93 50H1851.56V56.7864H1853.93V50Z" fill="#E2112E"/>
<path d="M1863.64 50H1861.27V69.0619H1863.64V50Z" fill="#E2112E"/>
<path d="M1868.14 50H1865.77V80.6387H1868.14V50Z" fill="#E2112E"/>
<path d="M1872.88 50H1870.51V95.509H1872.88V50Z" fill="#E2112E"/>
<path d="M1877.61 50H1875.24V85.4291H1877.61V50Z" fill="#E2112E"/>
<path d="M1882.35 50H1879.98V91.018H1882.35V50Z" fill="#E2112E"/>
<path d="M1887.08 50H1884.72V81.5369H1887.08V50Z" fill="#E2112E"/>
<path d="M1891.58 50H1889.22V72.2555H1891.58V50Z" fill="#E2112E"/>
<path d="M1441.66 50H1439.29V87.3254H1441.66V50Z" fill="#E2112E"/>
<path d="M1446.16 50H1443.79V72.2555H1446.16V50Z" fill="#E2112E"/>
<path d="M1450.89 50H1448.52V79.4411H1450.89V50Z" fill="#E2112E"/>
<path d="M1455.63 50H1453.26V64.7705H1455.63V50Z" fill="#E2112E"/>
<path d="M1460.36 50H1458V87.3254H1460.36V50Z" fill="#E2112E"/>
<path d="M1465.1 50H1462.73V72.2555H1465.1V50Z" fill="#E2112E"/>
<path d="M1469.6 50H1467.23V64.7705H1469.6V50Z" fill="#E2112E"/>
<path d="M1474.34 50H1471.97V72.2555H1474.34V50Z" fill="#E2112E"/>
<path d="M1479.07 50H1476.7V79.4411H1479.07V50Z" fill="#E2112E"/>
<path d="M1483.81 50H1481.44V72.2555H1483.81V50Z" fill="#E2112E"/>
<path d="M1488.54 50H1486.18V66.6667H1488.54V50Z" fill="#E2112E"/>
<path d="M1493.04 50H1490.68V61.1776H1493.04V50Z" fill="#E2112E"/>
<path d="M1497.78 50H1495.41V55.5888H1497.78V50Z" fill="#E2112E"/>
<path d="M1502.52 50H1500.15V53.6926H1502.52V50Z" fill="#E2112E"/>
<path d="M1507.25 50H1504.88V52.1956H1507.25V50Z" fill="#E2112E"/>
<path d="M1511.99 50H1509.62V53.2934H1511.99V50Z" fill="#E2112E"/>
<path d="M1516.49 50H1514.12V55.5888H1516.49V50Z" fill="#E2112E"/>
<path d="M1521.22 50H1518.85V58.7824H1521.22V50Z" fill="#E2112E"/>
<path d="M1525.96 50H1523.59V64.5709H1525.96V50Z" fill="#E2112E"/>
<path d="M1619.73 50H1617.37V84.2315H1619.73V50Z" fill="#E2112E"/>
<path d="M1624.47 50H1622.1V59.5808H1624.47V50Z" fill="#E2112E"/>
<path d="M1628.97 50H1626.6V81.5369H1628.97V50Z" fill="#E2112E"/>
<path d="M1633.7 50H1631.34V65.3693H1633.7V50Z" fill="#E2112E"/>
<path d="M1638.44 50H1636.07V70.5589H1638.44V50Z" fill="#E2112E"/>
<path d="M1643.18 50H1640.81V67.9641H1643.18V50Z" fill="#E2112E"/>
<path d="M1647.91 50H1645.54V64.4711H1647.91V50Z" fill="#E2112E"/>
<path d="M1652.41 50H1650.04V58.5828H1652.41V50Z" fill="#E2112E"/>
<path d="M1657.15 50H1654.78V63.5729H1657.15V50Z" fill="#E2112E"/>
<path d="M1661.88 50H1659.52V69.0619H1661.88V50Z" fill="#E2112E"/>
<path d="M1666.62 50H1664.25V64.4711H1666.62V50Z" fill="#E2112E"/>
<path d="M1671.36 50H1668.99V71.4571H1671.36V50Z" fill="#E2112E"/>
<path d="M1675.86 50H1673.49V66.6667H1675.86V50Z" fill="#E2112E"/>
<path d="M1680.59 50H1678.22V69.3613H1680.59V50Z" fill="#E2112E"/>
<path d="M1685.33 50H1682.96V64.8703H1685.33V50Z" fill="#E2112E"/>
<path d="M1690.06 50H1687.7V72.2555H1690.06V50Z" fill="#E2112E"/>
<path d="M1694.8 50H1692.43V71.8563H1694.8V50Z" fill="#E2112E"/>
<path d="M1699.3 50H1696.93V64.1717H1699.3V50Z" fill="#E2112E"/>
<path d="M1704.04 50H1701.67V59.3812H1704.04V50Z" fill="#E2112E"/>
<path d="M1708.77 50H1706.4V87.3254H1708.77V50Z" fill="#E2112E"/>
<path d="M1713.51 50H1711.14V79.4411H1713.51V50Z" fill="#E2112E"/>
<path d="M1718.24 50H1715.88V87.3254H1718.24V50Z" fill="#E2112E"/>
<path d="M1722.98 50H1720.61V72.2555H1722.98V50Z" fill="#E2112E"/>
<path d="M1727.48 50H1725.11V79.4411H1727.48V50Z" fill="#E2112E"/>
<path d="M1732.21 50H1729.85V64.7705H1732.21V50Z" fill="#E2112E"/>
<path d="M1736.95 50H1734.58V87.3254H1736.95V50Z" fill="#E2112E"/>
<path d="M1741.69 50H1739.32V72.2555H1741.69V50Z" fill="#E2112E"/>
<path d="M1746.42 50H1744.06V64.7705H1746.42V50Z" fill="#E2112E"/>
<path d="M1750.92 50H1748.55V72.2555H1750.92V50Z" fill="#E2112E"/>
<path d="M1755.66 50H1753.29V79.4411H1755.66V50Z" fill="#E2112E"/>
<path d="M1760.39 50H1758.03V72.2555H1760.39V50Z" fill="#E2112E"/>
<path d="M1765.13 50H1762.76V66.6667H1765.13V50Z" fill="#E2112E"/>
<path d="M1769.87 50H1767.5V61.1776H1769.87V50Z" fill="#E2112E"/>
<path d="M1774.37 50H1772V55.5888H1774.37V50Z" fill="#E2112E"/>
<path d="M1779.1 50H1776.73V53.6926H1779.1V50Z" fill="#E2112E"/>
<path d="M1783.84 50H1781.47V52.1956H1783.84V50Z" fill="#E2112E"/>
<path d="M1788.57 50H1786.21V53.2934H1788.57V50Z" fill="#E2112E"/>
<path d="M1793.31 50H1790.94V55.5888H1793.31V50Z" fill="#E2112E"/>
<path d="M1797.81 50H1795.44V58.7824H1797.81V50Z" fill="#E2112E"/>
<path d="M1802.55 50H1800.18V64.5709H1802.55V50Z" fill="#E2112E"/>
<path d="M1910.53 50H1908.16V67.1657H1910.53V50Z" fill="#E2112E"/>
<path d="M1915.26 50H1912.9V80.6387H1915.26V50Z" fill="#E2112E"/>
<path d="M1920 50H1917.63V62.3753H1920V50Z" fill="#E2112E"/>
<path d="M1896.56 50H1894.19V55.5888H1896.56V50Z" fill="#E2112E"/>
<path d="M1901.06 50H1898.69V58.7824H1901.06V50Z" fill="#E2112E"/>
<path d="M1905.79 50H1903.42V64.5709H1905.79V50Z" fill="#E2112E"/>
<path d="M1530.7 50H1528.33V72.2555H1530.7V50Z" fill="#E2112E"/>
<path d="M1535.43 50H1533.06V92.515H1535.43V50Z" fill="#E2112E"/>
<path d="M1539.93 50H1537.56V84.6307H1539.93V50Z" fill="#E2112E"/>
<path d="M1544.67 50H1542.3V77.1457H1544.67V50Z" fill="#E2112E"/>
<path d="M1549.4 50H1547.03V72.0559H1549.4V50Z" fill="#E2112E"/>
<path d="M1554.14 50H1551.77V62.0759H1554.14V50Z" fill="#E2112E"/>
<path d="M1558.87 50H1556.51V57.2854H1558.87V50Z" fill="#E2112E"/>
<path d="M1563.61 50H1561.24V52.3952H1563.61V50Z" fill="#E2112E"/>
<path d="M1568.11 50H1565.74V51.8962H1568.11V50Z" fill="#E2112E"/>
<path d="M1572.85 50H1570.48V59.1816H1572.85V50Z" fill="#E2112E"/>
<path d="M1577.58 50H1575.21V61.6766H1577.58V50Z" fill="#E2112E"/>
<path d="M1582.32 50H1579.95V55.2894H1582.32V50Z" fill="#E2112E"/>
<path d="M1587.05 50H1584.69V53.5928H1587.05V50Z" fill="#E2112E"/>
<path d="M1591.55 50H1589.19V57.984H1591.55V50Z" fill="#E2112E"/>
<path d="M1596.29 50H1593.92V63.5729H1596.29V50Z" fill="#E2112E"/>
<path d="M1601.03 50H1598.66V72.2555H1601.03V50Z" fill="#E2112E"/>
<path d="M1605.76 50H1603.39V71.2575H1605.76V50Z" fill="#E2112E"/>
<path d="M1610.5 50H1608.13V74.9501H1610.5V50Z" fill="#E2112E"/>
<path d="M1615 50H1612.63V73.3533H1615V50Z" fill="#E2112E"/>
</svg>
