<svg width="16" height="16" viewBox="0 0 16 16" fill="none" xmlns="http://www.w3.org/2000/svg">
<g clip-path="url(#clip0_696_1033)">
<path d="M7.39044 6.78125V9.21918H12.1918C11.6486 11.3649 9.70519 12.9529 7.39044 12.9529C4.65536 12.9529 2.43792 10.7354 2.43792 8.00037C2.43792 5.26529 4.65536 3.04754 7.39044 3.04754C9.15152 3.04754 10.698 3.96704 11.5759 5.35182H14.2916C13.2267 2.57856 10.5388 0.609619 7.39044 0.609619C3.30876 0.609619 0 3.91838 0 8.00006C0 12.0817 3.30876 15.3905 7.39044 15.3905C9.96971 15.3905 12.2398 14.0688 13.5621 12.0663V15.1749H16V6.78125H7.39044Z" fill="#E2112E"/>
</g>
<defs>
<clipPath id="clip0_696_1033">
<rect width="16" height="16" fill="white"/>
</clipPath>
</defs>
</svg>
